<svg width="38" height="44" viewBox="0 0 38 44" fill="none" xmlns="http://www.w3.org/2000/svg">
<path d="M16 44C10.6333 39.4333 6.625 35.1917 3.975 31.275C1.325 27.3583 0 23.7333 0 20.4C0 15.4 1.60833 11.4167 4.825 8.45C8.04167 5.48333 11.7667 4 16 4C16.5667 4 17.1083 4.025 17.625 4.075C18.1417 4.125 18.6667 4.2 19.2 4.3V7.4C18.7 7.26667 18.1833 7.16667 17.65 7.1C17.1167 7.03333 16.5667 7 16 7C12.3528 7 9.2743 8.25175 6.7646 10.7552C4.25487 13.2587 3 16.4737 3 20.4C3 22.9 4.08333 25.7917 6.25 29.075C8.41667 32.3583 11.6667 36.0167 16 40.05C20.4333 36.0167 23.7083 32.3583 25.825 29.075C27.9417 25.7917 29 22.9 29 20.4C29 20.1333 28.9917 19.8667 28.975 19.6C28.9583 19.3333 28.9333 19.0667 28.9 18.8H31.95C31.9833 19.0667 32 19.3333 32 19.6V20.4C32 23.7333 30.675 27.3583 28.025 31.275C25.375 35.1917 21.3667 39.4333 16 44ZM16.0044 23.5C16.9681 23.5 17.7917 23.1569 18.475 22.4706C19.1583 21.7843 19.5 20.9593 19.5 19.9956C19.5 19.0319 19.1569 18.2083 18.4706 17.525C17.7843 16.8417 16.9593 16.5 15.9956 16.5C15.0319 16.5 14.2083 16.8431 13.525 17.5294C12.8417 18.2157 12.5 19.0407 12.5 20.0044C12.5 20.9681 12.8431 21.7917 13.5294 22.475C14.2157 23.1583 15.0407 23.5 16.0044 23.5ZM28.6 15.8H31.6V9.4H38V6.4H31.6V0H28.6V6.4H22.2V9.4H28.6V15.8Z" fill="white"/>
</svg>
