<svg width="38" height="43" viewBox="0 0 38 43" fill="none" xmlns="http://www.w3.org/2000/svg">
<path d="M19 43C16.3667 43 13.9 42.5 11.6 41.5C9.3 40.5 7.29167 39.1417 5.575 37.425C3.85833 35.7083 2.5 33.7 1.5 31.4C0.5 29.1 0 26.6333 0 24C0 21.3667 0.5 18.9 1.5 16.6C2.5 14.3 3.85833 12.2917 5.575 10.575C7.29167 8.85833 9.3 7.5 11.6 6.5C13.9 5.5 16.3667 5 19 5V0L27 8L19 16V11C15.4 11 12.3333 12.2667 9.8 14.8C7.26667 17.3333 6 20.4 6 24C6 26.2 6.50833 28.2417 7.525 30.125C8.54167 32.0083 9.9 33.5333 11.6 34.7C12.1333 33.7667 12.925 32.975 13.975 32.325C15.025 31.675 16.2333 31.2667 17.6 31.1C17.5 30.4 17.3667 29.7 17.2 29C17.0333 28.3 16.8333 27.65 16.6 27.05C16.2333 27.35 15.8333 27.5833 15.4 27.75C14.9667 27.9167 14.5 28 14 28C12.9 28 11.9583 27.6083 11.175 26.825C10.3917 26.0417 10 25.1 10 24V22C10 21.4333 9.90833 20.9 9.725 20.4C9.54167 19.9 9.3 19.4333 9 19C10.6667 18.9667 12.15 19.1167 13.45 19.45C14.5833 19.75 15.6167 20.2417 16.55 20.925C17.4833 21.6083 17.9667 22.6333 18 24C18 24.3 17.975 24.575 17.925 24.825C17.875 25.075 17.7833 25.3333 17.65 25.6C17.2167 25.2667 16.7833 24.9667 16.35 24.7C15.9167 24.4333 15.4667 24.2 15 24C15.5667 24.4333 16.2167 25.1 16.95 26C17.6833 26.9 18.3667 27.9667 19 29.2C19.6667 27.5667 20.5 25.9583 21.5 24.375C22.5 22.7917 23.6667 21.3333 25 20C24.2333 20.5333 23.5 21.1 22.8 21.7C22.1 22.3 21.4167 22.9333 20.75 23.6C20.5167 23.2333 20.3333 22.825 20.2 22.375C20.0667 21.925 20 21.4667 20 21C20 19.6 20.4833 18.4167 21.45 17.45C22.4167 16.4833 23.6 16 25 16H27C27.7667 16 28.4 15.9 28.9 15.7C29.4 15.5 29.8167 15.2667 30.15 15C30.5167 14.7 30.8 14.3667 31 14C31.1333 16.2333 31.0167 18.2333 30.65 20C30.35 21.5 29.7833 22.875 28.95 24.125C28.1167 25.375 26.8 26 25 26C24.5 26 24.025 25.9333 23.575 25.8C23.125 25.6667 22.7167 25.4833 22.35 25.25C22.1167 25.8833 21.85 26.725 21.55 27.775C21.25 28.825 21.0167 29.95 20.85 31.15C22.1167 31.3833 23.2333 31.8167 24.2 32.45C25.1667 33.0833 25.9 33.8333 26.4 34.7C28.1 33.5333 29.4583 32.0167 30.475 30.15C31.4917 28.2833 32 26.2333 32 24H38C38 26.6333 37.5 29.1 36.5 31.4C35.5 33.7 34.1417 35.7083 32.425 37.425C30.7083 39.1417 28.7 40.5 26.4 41.5C24.1 42.5 21.6333 43 19 43Z" fill="white"/>
</svg>
