<svg width="35" height="31" viewBox="0 0 35 31" fill="none" xmlns="http://www.w3.org/2000/svg">
<path d="M7.86883 26.2024C7.37711 26.2024 6.96354 26.0592 6.62812 25.7728C6.29271 25.4864 6.125 25.1358 6.125 24.721C6.125 24.3062 6.29476 23.9573 6.63429 23.6744C6.97382 23.3915 7.38945 23.25 7.88117 23.25C8.37289 23.25 8.78646 23.3932 9.12187 23.6796C9.45729 23.966 9.625 24.3166 9.625 24.7314C9.625 25.1462 9.45524 25.495 9.11571 25.778C8.77618 26.0609 8.36055 26.2024 7.86883 26.2024ZM13.1188 31C12.6271 31 12.2135 30.8568 11.8781 30.5704C11.5427 30.284 11.375 29.9334 11.375 29.5186C11.375 29.1038 11.5448 28.7549 11.8843 28.472C12.2238 28.1891 12.6394 28.0476 13.1312 28.0476C13.6229 28.0476 14.0365 28.1908 14.3719 28.4772C14.7073 28.7636 14.875 29.1142 14.875 29.529C14.875 29.9438 14.7052 30.2926 14.3657 30.5756C14.0262 30.8585 13.6106 31 13.1188 31ZM18.3688 26.2024C17.8771 26.2024 17.4635 26.0592 17.1281 25.7728C16.7927 25.4864 16.625 25.1358 16.625 24.721C16.625 24.3062 16.7948 23.9573 17.1343 23.6744C17.4738 23.3915 17.8894 23.25 18.3812 23.25C18.8729 23.25 19.2865 23.3932 19.6219 23.6796C19.9573 23.966 20.125 24.3166 20.125 24.7314C20.125 25.1462 19.9552 25.495 19.6157 25.778C19.2762 26.0609 18.8606 26.2024 18.3688 26.2024ZM28.8688 26.2024C28.3771 26.2024 27.9635 26.0592 27.6281 25.7728C27.2927 25.4864 27.125 25.1358 27.125 24.721C27.125 24.3062 27.2948 23.9573 27.6343 23.6744C27.9738 23.3915 28.3894 23.25 28.8812 23.25C29.3729 23.25 29.7865 23.3932 30.1219 23.6796C30.4573 23.966 30.625 24.3166 30.625 24.7314C30.625 25.1462 30.4552 25.495 30.1157 25.778C29.7762 26.0609 29.3606 26.2024 28.8688 26.2024ZM23.6188 31C23.1271 31 22.7135 30.8568 22.3781 30.5704C22.0427 30.284 21.875 29.9334 21.875 29.5186C21.875 29.1038 22.0448 28.7549 22.3843 28.472C22.7238 28.1891 23.1394 28.0476 23.6312 28.0476C24.1229 28.0476 24.5365 28.1908 24.8719 28.4772C25.2073 28.7636 25.375 29.1142 25.375 29.529C25.375 29.9438 25.2052 30.2926 24.8657 30.5756C24.5262 30.8585 24.1106 31 23.6188 31ZM9.1875 19.9286C6.65397 19.9286 4.48933 19.1718 2.6936 17.6582C0.897866 16.1446 0 14.3201 0 12.1847C0 10.2369 0.823958 8.5004 2.47187 6.975C4.11979 5.4496 6.16875 4.6131 8.61875 4.46548C9.55208 3.0877 10.7844 1.99901 12.3156 1.1994C13.8469 0.399802 15.5812 0 17.5185 0C20.1603 0 22.3781 0.707341 24.1719 2.12202C25.9656 3.53671 27.0667 5.28968 27.475 7.38095C29.7792 7.47937 31.6094 8.1375 32.9656 9.35536C34.3219 10.5732 35 12.0017 35 13.6408C35 15.3723 34.2769 16.8532 32.8307 18.0833C31.3845 19.3135 29.6285 19.9286 27.5625 19.9286H9.1875ZM9.1875 17.7143H27.5625C28.91 17.7143 30.049 17.3145 30.9794 16.5149C31.9098 15.7153 32.375 14.7558 32.375 13.6363C32.375 12.5169 31.9098 11.5635 30.9794 10.7762C30.049 9.98889 28.91 9.59524 27.5625 9.59524H24.9375V8.4881C24.9375 6.74127 24.2156 5.25893 22.7719 4.04107C21.3281 2.82321 19.5739 2.21429 17.5093 2.21429C16.0077 2.21429 14.6391 2.55258 13.4035 3.22917C12.1678 3.90575 11.2583 4.82222 10.675 5.97857L10.325 6.64286H9.1C7.29167 6.69206 5.76042 7.25047 4.50625 8.31808C3.25208 9.38568 2.625 10.6708 2.625 12.1733C2.625 13.7022 3.26563 15.0079 4.54689 16.0905C5.82813 17.173 7.375 17.7143 9.1875 17.7143Z" fill="white"/>
</svg>
