<svg width="30" height="26" viewBox="0 0 30 26" fill="none" xmlns="http://www.w3.org/2000/svg">
<path d="M13.75 26V14.6845H12.9167C11.1389 14.6845 9.46528 14.3854 7.89583 13.7873C6.32639 13.1892 4.93056 12.3408 3.70833 11.2423C2.48611 10.1437 1.5625 8.87418 0.9375 7.4338C0.3125 5.99343 0 4.49202 0 2.92958V0H3.26342C4.97669 0 6.625 0.299061 8.20833 0.897183C9.79167 1.49531 11.2083 2.34366 12.4583 3.44225C13.375 4.2723 14.1319 5.2 14.7292 6.22535C15.3264 7.2507 15.75 8.33709 16 9.48451C16.2124 9.19399 16.4461 8.91385 16.701 8.64408C16.9559 8.37432 17.2222 8.10516 17.5 7.83662C18.75 6.73803 20.1667 5.88967 21.75 5.29155C23.3333 4.69343 24.9954 4.39437 26.7361 4.39437H30V7.32394C30 8.88638 29.667 10.3878 29.0009 11.8282C28.3348 13.2685 27.3901 14.538 26.1667 15.6366C24.9167 16.7352 23.5061 17.5775 21.935 18.1634C20.3638 18.7493 18.7188 19.0423 17 19.0423H16.25V26H13.75ZM13.7917 12.4507C13.7917 10.9615 13.5139 9.57606 12.9583 8.29437C12.4028 7.01268 11.6389 5.92629 10.6667 5.03521C9.69444 4.14413 8.5 3.44836 7.08333 2.94789C5.66667 2.44742 4.13889 2.19718 2.5 2.19718C2.5 3.73521 2.75694 5.14507 3.27083 6.42676C3.78472 7.70845 4.52778 8.80094 5.5 9.70422C6.66667 10.8028 7.92361 11.5352 9.27083 11.9014C10.6181 12.2676 12.125 12.4507 13.7917 12.4507ZM16.25 16.8451C17.9167 16.8451 19.4583 16.607 20.875 16.131C22.2917 15.6549 23.4861 14.9714 24.4583 14.0803C25.4306 13.1892 26.1806 12.1028 26.7083 10.8211C27.2361 9.53944 27.5 8.12958 27.5 6.59155C25.8333 6.59155 24.2917 6.84178 22.875 7.34225C21.4583 7.84272 20.2639 8.53239 19.2917 9.41127C18.0972 10.5099 17.2917 11.6573 16.875 12.8535C16.4583 14.0498 16.25 15.3803 16.25 16.8451Z" fill="white"/>
</svg>
