<svg width="417" height="33" viewBox="0 0 417 33" fill="none" xmlns="http://www.w3.org/2000/svg">
<path d="M7.8 6.08V26.84H16.16L16 24.04C15.9733 23.64 16.16 23.44 16.56 23.44H18.8C19.2 23.44 19.4 23.64 19.4 24.04V31.92C19.4 32.32 19.2 32.52 18.8 32.52H16.56C16.16 32.52 15.9733 32.32 16 31.92L16.12 30H1.2C0.8 30 0.6 29.8 0.6 29.4V27.44C0.6 27.04 0.8 26.84 1.2 26.84H3.32V6.08H1.2C0.8 6.08 0.6 5.88 0.6 5.48V3.44C0.6 3.04 0.8 2.84 1.2 2.84H10.72C11.12 2.84 11.32 3.04 11.32 3.44V5.48C11.32 5.88 11.12 6.08 10.72 6.08H7.8ZM33.1356 18.12V16.72C33.1356 14.8267 32.6023 13.64 31.5356 13.16C31.029 12.9467 30.2956 12.84 29.3356 12.84C27.5223 12.84 26.429 13.6933 26.0556 15.4C25.9756 15.8 25.7756 16 25.4556 16H22.8956C22.469 16 22.2823 15.8 22.3356 15.4C22.4423 13.4533 23.229 12.0267 24.6956 11.12C26.1623 10.2133 28.029 9.76 30.2956 9.76C35.069 9.76 37.4556 11.9467 37.4556 16.32V26.84H39.1756C39.5756 26.84 39.7756 27.04 39.7756 27.44V29.4C39.7756 29.8 39.5756 30 39.1756 30H34.4556C34.109 30 33.909 29.8 33.8556 29.4L33.5756 27.56C32.1356 29.5067 30.0556 30.48 27.3356 30.48C25.629 30.48 24.2156 30.04 23.0956 29.16C21.9756 28.2533 21.4156 26.8133 21.4156 24.84C21.4156 22.2533 22.4956 20.48 24.6556 19.52C26.4423 18.6933 28.5756 18.24 31.0556 18.16C31.5623 18.16 32.2556 18.1467 33.1356 18.12ZM33.2156 23.96V20.88C30.6556 20.88 29.0823 21 28.4956 21.24C27.909 21.48 27.389 21.72 26.9356 21.96C26.0823 22.4133 25.6556 23.24 25.6556 24.44C25.6556 26.28 26.709 27.2 28.8156 27.2C30.2023 27.2 31.2823 26.88 32.0556 26.24C32.829 25.5733 33.2156 24.8133 33.2156 23.96ZM41.9922 12.92V10.8C41.9922 10.4 42.1922 10.2 42.5922 10.2H48.0322C48.3789 10.2 48.5922 10.4 48.6722 10.8L49.0322 13.12C50.5255 10.88 52.6589 9.76 55.4322 9.76C59.5655 9.76 61.6322 12.0267 61.6322 16.56V26.84H63.9522C64.3522 26.84 64.5522 27.04 64.5522 27.44V29.4C64.5522 29.8 64.3522 30 63.9522 30H55.2322C54.8322 30 54.6322 29.8 54.6322 29.4V27.44C54.6322 27.04 54.8322 26.84 55.2322 26.84H57.1522V18.56C57.1522 16.88 56.9389 15.6533 56.5122 14.88C56.0855 14.1067 55.2055 13.72 53.8722 13.72C52.5389 13.72 51.4322 14.12 50.5522 14.92C49.6722 15.72 49.2322 16.6267 49.2322 17.64V26.84H51.7122C52.1122 26.84 52.3122 27.04 52.3122 27.44V29.4C52.3122 29.8 52.1122 30 51.7122 30H42.6322C42.2322 30 42.0322 29.8 42.0322 29.4V27.44C42.0322 27.04 42.2322 26.84 42.6322 26.84H44.7522V13.48H42.5922C42.1922 13.48 41.9922 13.2933 41.9922 12.92ZM84.9328 26.84H86.6528C87.0528 26.84 87.2528 27.04 87.2528 27.44V29.4C87.2528 29.8 87.0528 30 86.6528 30H82.1328C81.7861 30 81.5861 29.8 81.5328 29.4L81.2128 27.04C79.8528 29.3333 77.6795 30.48 74.6928 30.48C72.0795 30.48 70.0661 29.6667 68.6528 28.04C67.2395 26.3867 66.5328 23.84 66.5328 20.4C66.5328 16.9333 67.3461 14.2933 68.9728 12.48C70.6261 10.6667 72.7461 9.76 75.3328 9.76C76.5061 9.76 77.5461 9.98667 78.4528 10.44C79.3595 10.8667 80.0261 11.3867 80.4528 12V3.48H78.3328C77.9328 3.48 77.7328 3.28 77.7328 2.88V0.76C77.7328 0.359999 77.9328 0.159998 78.3328 0.159998H84.3328C84.7328 0.159998 84.9328 0.359999 84.9328 0.76V26.84ZM80.4528 22.48V15.44C80.1061 14.9067 79.4928 14.4133 78.6128 13.96C77.7595 13.5067 76.8928 13.28 76.0128 13.28C72.7061 13.28 71.0528 15.52 71.0528 20C71.0528 23.44 71.7995 25.5867 73.2928 26.44C73.9328 26.8133 74.8128 27 75.9328 27C77.0528 27 78.0795 26.5867 79.0128 25.76C79.9728 24.9333 80.4528 23.84 80.4528 22.48ZM105.261 6.08V26.84H107.381C107.781 26.84 107.981 27.04 107.981 27.44V29.4C107.981 29.8 107.781 30 107.381 30H98.6609C98.2609 30 98.0609 29.8 98.0609 29.4V27.44C98.0609 27.04 98.2609 26.84 98.6609 26.84H100.781V6.08H98.6609C98.2609 6.08 98.0609 5.88 98.0609 5.48V3.44C98.0609 3.04 98.2609 2.84 98.6609 2.84H107.381C107.781 2.84 107.981 3.04 107.981 3.44V5.48C107.981 5.88 107.781 6.08 107.381 6.08H105.261ZM110.586 12.92V10.8C110.586 10.4 110.786 10.2 111.186 10.2H116.626C116.973 10.2 117.186 10.4 117.266 10.8L117.626 13.12C119.119 10.88 121.253 9.76 124.026 9.76C128.159 9.76 130.226 12.0267 130.226 16.56V26.84H132.546C132.946 26.84 133.146 27.04 133.146 27.44V29.4C133.146 29.8 132.946 30 132.546 30H123.826C123.426 30 123.226 29.8 123.226 29.4V27.44C123.226 27.04 123.426 26.84 123.826 26.84H125.746V18.56C125.746 16.88 125.533 15.6533 125.106 14.88C124.679 14.1067 123.799 13.72 122.466 13.72C121.133 13.72 120.026 14.12 119.146 14.92C118.266 15.72 117.826 16.6267 117.826 17.64V26.84H120.306C120.706 26.84 120.906 27.04 120.906 27.44V29.4C120.906 29.8 120.706 30 120.306 30H111.226C110.826 30 110.626 29.8 110.626 29.4V27.44C110.626 27.04 110.826 26.84 111.226 26.84H113.346V13.48H111.186C110.786 13.48 110.586 13.2933 110.586 12.92ZM140.327 10.76L144.967 25.56L149.167 13.48H147.127C146.727 13.48 146.527 13.28 146.527 12.88V10.8C146.527 10.4 146.727 10.2 147.127 10.2H152.967C153.287 10.2 153.5 10.2933 153.607 10.48C153.713 10.6667 153.767 10.84 153.767 11C153.767 11.1333 153.74 11.2667 153.687 11.4L146.847 29.44C146.74 29.8133 146.473 30 146.047 30H142.607C142.233 30 141.967 29.8133 141.807 29.44L136.327 13.48H134.327C133.927 13.48 133.727 13.28 133.727 12.88V10.8C133.727 10.4 133.927 10.2 134.327 10.2H139.567C139.967 10.2 140.22 10.3867 140.327 10.76ZM165.069 30.48C161.895 30.48 159.562 29.56 158.069 27.72C156.602 25.8533 155.869 23.4 155.869 20.36C155.869 17.2933 156.655 14.76 158.229 12.76C159.802 10.76 162.069 9.76 165.029 9.76C166.495 9.76 167.749 10.04 168.789 10.6C169.855 11.1333 170.669 11.8667 171.229 12.8C172.295 14.6133 172.829 16.7067 172.829 19.08C172.829 20.2 172.775 20.8133 172.669 20.92C172.562 21.0267 172.362 21.08 172.069 21.08H160.309C160.442 23 160.909 24.4933 161.709 25.56C162.535 26.6 163.949 27.12 165.949 27.12C167.415 27.12 168.922 26.7733 170.469 26.08C170.842 25.8933 171.109 26 171.269 26.4L172.029 28.24C172.162 28.56 172.042 28.8267 171.669 29.04C169.909 30 167.709 30.48 165.069 30.48ZM160.309 18.12H168.629C168.682 14.7867 167.375 13.12 164.709 13.12C163.135 13.12 162.015 13.6267 161.349 14.64C160.709 15.6267 160.362 16.7867 160.309 18.12ZM175.888 15.92C175.888 14.16 176.568 12.6933 177.928 11.52C179.288 10.3467 181.008 9.76 183.088 9.76C185.168 9.76 186.968 10 188.488 10.48C188.862 10.5867 189.048 10.8267 189.048 11.2V15.44C189.048 15.84 188.848 16.04 188.448 16.04H186.128C185.702 16.04 185.528 15.84 185.608 15.44L185.808 13.4C185.008 12.9733 184.128 12.76 183.168 12.76C181.035 12.76 179.968 13.5067 179.968 15C179.968 15.7733 180.315 16.3867 181.008 16.84C181.702 17.2933 182.542 17.6667 183.528 17.96C184.515 18.2267 185.502 18.5467 186.488 18.92C187.502 19.2667 188.355 19.88 189.048 20.76C189.742 21.6133 190.088 22.7067 190.088 24.04C190.088 26.0667 189.382 27.6533 187.968 28.8C186.555 29.92 184.568 30.48 182.008 30.48C180.222 30.48 178.342 30.2133 176.368 29.68C176.022 29.5733 175.848 29.32 175.848 28.92V24.68C175.848 24.28 176.048 24.08 176.448 24.08H178.768C179.168 24.08 179.355 24.28 179.328 24.68L179.208 26.76C179.928 27.2933 180.955 27.56 182.288 27.56C184.662 27.56 185.848 26.72 185.848 25.04C185.848 24.1867 185.502 23.52 184.808 23.04C184.142 22.5333 183.315 22.1467 182.328 21.88C181.368 21.6133 180.395 21.32 179.408 21C178.422 20.6533 177.582 20.0667 176.888 19.24C176.222 18.3867 175.888 17.28 175.888 15.92ZM198.874 13.48V23.56C198.874 24.8133 199.034 25.72 199.354 26.28C199.674 26.84 200.274 27.12 201.154 27.12C202.034 27.12 202.887 26.9333 203.714 26.56C204.007 26.4533 204.221 26.56 204.354 26.88L205.074 28.72C205.101 28.8 205.114 28.92 205.114 29.08C205.114 29.2133 204.981 29.36 204.714 29.52C203.434 30.16 201.914 30.48 200.154 30.48C197.781 30.48 196.221 29.8667 195.474 28.64C194.941 27.84 194.634 27.0667 194.554 26.32C194.447 25.3067 194.394 24.24 194.394 23.12V13.48H192.114C191.714 13.48 191.514 13.28 191.514 12.88V10.8C191.514 10.4 191.714 10.2 192.114 10.2H194.394V4.8C194.394 4.4 194.594 4.2 194.994 4.2H198.274C198.674 4.2 198.874 4.4 198.874 4.8V10.2H202.914C203.314 10.2 203.514 10.4 203.514 10.8V12.88C203.514 13.28 203.314 13.48 202.914 13.48H198.874ZM206.68 12.88V10.8C206.68 10.4 206.88 10.2 207.28 10.2H212.76C213.106 10.2 213.306 10.4 213.36 10.8L213.68 13.12C215.066 10.88 217.146 9.76 219.92 9.76C222.693 9.76 224.52 10.9333 225.4 13.28C226.84 10.9333 228.933 9.76 231.68 9.76C235.813 9.76 237.88 12.0267 237.88 16.56V26.84H240.16C240.56 26.84 240.76 27.04 240.76 27.44V29.4C240.76 29.8 240.56 30 240.16 30H231.36C230.96 30 230.76 29.8 230.76 29.4V27.44C230.76 27.04 230.96 26.84 231.36 26.84H233.4V18.56C233.4 16.88 233.186 15.6533 232.76 14.88C232.333 14.1067 231.466 13.72 230.16 13.72C228.88 13.72 227.853 14.0667 227.08 14.76C226.306 15.4533 225.92 16.2667 225.92 17.2V26.84H227.84C228.24 26.84 228.44 27.04 228.44 27.44V29.4C228.44 29.8 228.24 30 227.84 30H219.64C219.24 30 219.04 29.8 219.04 29.4V27.44C219.04 27.04 219.24 26.84 219.64 26.84H221.44V18.56C221.44 16.88 221.226 15.6533 220.8 14.88C220.373 14.1067 219.493 13.72 218.16 13.72C216.853 13.72 215.813 14.12 215.04 14.92C214.293 15.6933 213.92 16.6 213.92 17.64V26.84H216.36C216.76 26.84 216.96 27.04 216.96 27.44V29.4C216.96 29.8 216.76 30 216.36 30H207.32C206.92 30 206.72 29.8 206.72 29.4V27.44C206.72 27.04 206.92 26.84 207.32 26.84H209.44V13.48H207.28C206.88 13.48 206.68 13.28 206.68 12.88ZM251.983 30.48C248.809 30.48 246.476 29.56 244.983 27.72C243.516 25.8533 242.783 23.4 242.783 20.36C242.783 17.2933 243.569 14.76 245.143 12.76C246.716 10.76 248.983 9.76 251.943 9.76C253.409 9.76 254.663 10.04 255.703 10.6C256.769 11.1333 257.583 11.8667 258.143 12.8C259.209 14.6133 259.743 16.7067 259.743 19.08C259.743 20.2 259.689 20.8133 259.583 20.92C259.476 21.0267 259.276 21.08 258.983 21.08H247.223C247.356 23 247.823 24.4933 248.623 25.56C249.449 26.6 250.863 27.12 252.863 27.12C254.329 27.12 255.836 26.7733 257.383 26.08C257.756 25.8933 258.023 26 258.183 26.4L258.943 28.24C259.076 28.56 258.956 28.8267 258.583 29.04C256.823 30 254.623 30.48 251.983 30.48ZM247.223 18.12H255.543C255.596 14.7867 254.289 13.12 251.623 13.12C250.049 13.12 248.929 13.6267 248.263 14.64C247.623 15.6267 247.276 16.7867 247.223 18.12ZM261.953 12.92V10.8C261.953 10.4 262.153 10.2 262.553 10.2H267.993C268.34 10.2 268.553 10.4 268.633 10.8L268.993 13.12C270.486 10.88 272.62 9.76 275.393 9.76C279.526 9.76 281.593 12.0267 281.593 16.56V26.84H283.913C284.313 26.84 284.513 27.04 284.513 27.44V29.4C284.513 29.8 284.313 30 283.913 30H275.193C274.793 30 274.593 29.8 274.593 29.4V27.44C274.593 27.04 274.793 26.84 275.193 26.84H277.113V18.56C277.113 16.88 276.9 15.6533 276.473 14.88C276.046 14.1067 275.166 13.72 273.833 13.72C272.5 13.72 271.393 14.12 270.513 14.92C269.633 15.72 269.193 16.6267 269.193 17.64V26.84H271.673C272.073 26.84 272.273 27.04 272.273 27.44V29.4C272.273 29.8 272.073 30 271.673 30H262.593C262.193 30 261.993 29.8 261.993 29.4V27.44C261.993 27.04 262.193 26.84 262.593 26.84H264.713V13.48H262.553C262.153 13.48 261.953 13.2933 261.953 12.92ZM293.054 13.48V23.56C293.054 24.8133 293.214 25.72 293.534 26.28C293.854 26.84 294.454 27.12 295.334 27.12C296.214 27.12 297.067 26.9333 297.894 26.56C298.187 26.4533 298.4 26.56 298.534 26.88L299.254 28.72C299.28 28.8 299.294 28.92 299.294 29.08C299.294 29.2133 299.16 29.36 298.894 29.52C297.614 30.16 296.094 30.48 294.334 30.48C291.96 30.48 290.4 29.8667 289.654 28.64C289.12 27.84 288.814 27.0667 288.734 26.32C288.627 25.3067 288.574 24.24 288.574 23.12V13.48H286.294C285.894 13.48 285.694 13.28 285.694 12.88V10.8C285.694 10.4 285.894 10.2 286.294 10.2H288.574V4.8C288.574 4.4 288.774 4.2 289.174 4.2H292.454C292.854 4.2 293.054 4.4 293.054 4.8V10.2H297.094C297.494 10.2 297.694 10.4 297.694 10.8V12.88C297.694 13.28 297.494 13.48 297.094 13.48H293.054ZM309.467 29.4V27.44C309.467 27.04 309.667 26.84 310.067 26.84H312.147V6.04H310.067C309.667 6.04 309.467 5.84 309.467 5.44V3.44C309.467 3.04 309.667 2.84 310.067 2.84C313.481 2.68 316.267 2.6 318.427 2.6C325.521 2.6 329.067 5.2 329.067 10.4C329.067 13.0933 328.201 15.2267 326.467 16.8C324.734 18.3733 322.374 19.16 319.387 19.16C318.214 19.16 317.294 19.12 316.627 19.04V26.84H319.947C320.347 26.84 320.547 27.04 320.547 27.44V29.4C320.547 29.8 320.347 30 319.947 30H310.067C309.667 30 309.467 29.8 309.467 29.4ZM316.627 5.92V15.96C316.867 15.9867 317.481 16 318.467 16C322.467 16 324.467 14.2267 324.467 10.68C324.467 9.4 324.134 8.4 323.467 7.68C322.827 6.93333 322.067 6.45333 321.187 6.24C320.334 6.02666 319.294 5.92 318.067 5.92H316.627ZM331.884 20.4C331.884 18.4 332.191 16.6667 332.804 15.2C333.418 13.7333 334.218 12.6267 335.204 11.88C337.098 10.4667 339.151 9.76 341.364 9.76C342.991 9.76 344.364 10.0133 345.484 10.52C346.604 11.0267 347.471 11.6133 348.084 12.28C348.724 12.9467 349.258 13.9067 349.684 15.16C350.138 16.4133 350.364 17.88 350.364 19.56C350.364 23.1333 349.458 25.8533 347.644 27.72C345.858 29.56 343.564 30.48 340.764 30.48C337.964 30.48 335.778 29.64 334.204 27.96C332.658 26.2533 331.884 23.7333 331.884 20.4ZM341.084 27.2C342.684 27.2 343.844 26.6133 344.564 25.44C345.311 24.24 345.684 22.4667 345.684 20.12C345.684 17.7733 345.311 16.0133 344.564 14.84C343.844 13.64 342.658 13.04 341.004 13.04C337.938 13.04 336.404 15.2 336.404 19.52C336.404 24.64 337.964 27.2 341.084 27.2ZM359.773 13.64C360.227 12.5733 360.96 11.6667 361.973 10.92C362.987 10.1467 364.093 9.76 365.293 9.76C366.493 9.76 367.413 9.86667 368.053 10.08C368.373 10.1867 368.533 10.4267 368.533 10.8V16.2C368.533 16.6 368.333 16.8 367.933 16.8H365.333C364.933 16.8 364.747 16.6 364.773 16.2L364.933 13.88C364.8 13.8533 364.573 13.84 364.253 13.84C363.027 13.84 362.013 14.3467 361.213 15.36C360.413 16.3467 360.013 17.68 360.013 19.36V26.84H364.413C364.813 26.84 365.013 27.04 365.013 27.44V29.4C365.013 29.8 364.813 30 364.413 30H353.413C353.013 30 352.813 29.8 352.813 29.4V27.44C352.813 27.04 353.013 26.84 353.413 26.84H355.533V13.48H353.373C352.973 13.48 352.773 13.28 352.773 12.88V10.8C352.773 10.4 352.973 10.2 353.373 10.2H358.653C359.027 10.2 359.253 10.4 359.333 10.8L359.773 13.64ZM377.78 13.48V23.56C377.78 24.8133 377.94 25.72 378.26 26.28C378.58 26.84 379.18 27.12 380.06 27.12C380.94 27.12 381.794 26.9333 382.62 26.56C382.914 26.4533 383.127 26.56 383.26 26.88L383.98 28.72C384.007 28.8 384.02 28.92 384.02 29.08C384.02 29.2133 383.887 29.36 383.62 29.52C382.34 30.16 380.82 30.48 379.06 30.48C376.687 30.48 375.127 29.8667 374.38 28.64C373.847 27.84 373.54 27.0667 373.46 26.32C373.354 25.3067 373.3 24.24 373.3 23.12V13.48H371.02C370.62 13.48 370.42 13.28 370.42 12.88V10.8C370.42 10.4 370.62 10.2 371.02 10.2H373.3V4.8C373.3 4.4 373.5 4.2 373.9 4.2H377.18C377.58 4.2 377.78 4.4 377.78 4.8V10.2H381.82C382.22 10.2 382.42 10.4 382.42 10.8V12.88C382.42 13.28 382.22 13.48 381.82 13.48H377.78ZM397.315 18.12V16.72C397.315 14.8267 396.782 13.64 395.715 13.16C395.209 12.9467 394.475 12.84 393.515 12.84C391.702 12.84 390.609 13.6933 390.235 15.4C390.155 15.8 389.955 16 389.635 16H387.075C386.649 16 386.462 15.8 386.515 15.4C386.622 13.4533 387.409 12.0267 388.875 11.12C390.342 10.2133 392.209 9.76 394.475 9.76C399.249 9.76 401.635 11.9467 401.635 16.32V26.84H403.355C403.755 26.84 403.955 27.04 403.955 27.44V29.4C403.955 29.8 403.755 30 403.355 30H398.635C398.289 30 398.089 29.8 398.035 29.4L397.755 27.56C396.315 29.5067 394.235 30.48 391.515 30.48C389.809 30.48 388.395 30.04 387.275 29.16C386.155 28.2533 385.595 26.8133 385.595 24.84C385.595 22.2533 386.675 20.48 388.835 19.52C390.622 18.6933 392.755 18.24 395.235 18.16C395.742 18.16 396.435 18.1467 397.315 18.12ZM397.395 23.96V20.88C394.835 20.88 393.262 21 392.675 21.24C392.089 21.48 391.569 21.72 391.115 21.96C390.262 22.4133 389.835 23.24 389.835 24.44C389.835 26.28 390.889 27.2 392.995 27.2C394.382 27.2 395.462 26.88 396.235 26.24C397.009 25.5733 397.395 24.8133 397.395 23.96ZM413.412 0.76V26.84H415.932C416.332 26.84 416.532 27.04 416.532 27.44V29.4C416.532 29.8 416.332 30 415.932 30H406.412C406.012 30 405.812 29.8 405.812 29.4V27.44C405.812 27.04 406.012 26.84 406.412 26.84H408.932V3.44H406.772C406.372 3.44 406.172 3.24 406.172 2.84V0.76C406.172 0.359999 406.372 0.159998 406.772 0.159998H412.812C413.212 0.159998 413.412 0.359999 413.412 0.76Z" fill="white"/>
</svg>
