<svg width="30" height="35" viewBox="0 0 30 35" fill="none" xmlns="http://www.w3.org/2000/svg">
<path d="M15.0042 17.0625C15.9076 17.0625 16.6797 16.7622 17.3203 16.1617C17.9609 15.5612 18.2812 14.8394 18.2812 13.9961C18.2812 13.1529 17.9595 12.4323 17.3161 11.8344C16.6728 11.2365 15.8993 10.9375 14.9958 10.9375C14.0924 10.9375 13.3203 11.2378 12.6797 11.8383C12.0391 12.4388 11.7188 13.1606 11.7188 14.0039C11.7188 14.8471 12.0405 15.5677 12.6839 16.1656C13.3272 16.7635 14.1007 17.0625 15.0042 17.0625ZM15 31.5437C19.1562 28.0146 22.2266 24.8135 24.2109 21.9406C26.1953 19.0677 27.1875 16.5375 27.1875 14.35C27.1875 10.9145 26.0111 8.10141 23.6582 5.91084C21.3053 3.72028 18.4193 2.625 15 2.625C11.5807 2.625 8.69466 3.72028 6.34181 5.91084C3.98894 8.10141 2.8125 10.9145 2.8125 14.35C2.8125 16.5375 3.82812 19.0677 5.85938 21.9406C7.89062 24.8135 10.9375 28.0146 15 31.5437ZM15 35C9.96875 31.0042 6.21094 27.2927 3.72656 23.8656C1.24219 20.4385 0 17.2667 0 14.35C0 9.975 1.50781 6.48958 4.52344 3.89375C7.53906 1.29792 11.0312 0 15 0C18.9688 0 22.4609 1.29792 25.4766 3.89375C28.4922 6.48958 30 9.975 30 14.35C30 17.2667 28.7578 20.4385 26.2734 23.8656C23.7891 27.2927 20.0312 31.0042 15 35Z" fill="#003247"/>
</svg>
